<svg xmlns="http://www.w3.org/2000/svg">

    <symbol id="add" viewBox="0 0 28 28">
        <path fill-rule="evenodd" clip-rule="evenodd" d="M26.833,12.833H15.167V1.168C15.167,0.522,14.669,0,14.024,0
        s-1.167,0.521-1.167,1.165l-0.011,11.668H1.167C0.521,12.833,0,13.354,0,14c0,0.644,0.521,1.167,1.167,1.167h11.679l-0.012,11.665
        c-0.001,0.645,0.52,1.167,1.164,1.168h0.001c0.644,0,1.167-0.521,1.167-1.165V15.167h11.667C27.478,15.167,28,14.644,28,14
        C28,13.354,27.478,12.833,26.833,12.833z"/>
    </symbol>

    <symbol id="pencil" viewBox="0 0 37 37">
        <path d="M-0.265,37.342l2.772-11.814L26.759,1.273c0.771-0.771,1.797-1.196,2.888-1.196
	c1.092,0,2.118,0.425,2.888,1.196l3.271,3.271c1.589,1.591,1.589,4.181,0.001,5.774L11.552,34.571L-0.265,37.342z M4.127,27.382
	l-1.708,7.276l7.277-1.707L4.127,27.382z M5.218,25.645l6.215,6.215L30.397,12.9l-6.203-6.234L5.218,25.645z M25.609,5.252
	l6.203,6.234l0.783-0.783l-6.219-6.218L25.609,5.252z M27.79,3.07l6.219,6.218l0.382-0.382c0.81-0.813,0.81-2.136,0-2.948
	L31.12,2.688c-0.786-0.787-2.16-0.787-2.947,0L27.79,3.07z"/>
    </symbol>

    <symbol id="pdf" viewBox="0 0 34 40">
        <path d="M33.668,40H0V0h23.082l10.586,10.586V40z M2,38h29.668V12h-10V2H2V38z M23.668,10h6.586l-6.586-6.586V10z
	 M17.668,31.666H15V21.333h2.668c2.47,0,4.332,2.221,4.332,5.167C22,29.445,20.138,31.666,17.668,31.666z M17,29.666h0.668
	c1.351,0,2.332-1.332,2.332-3.166c0-1.835-0.981-3.167-2.332-3.167H17V29.666z M25.334,30.666h-2v-9.333H28.5v2h-3.166v1.214h1.5v2
	h-1.5V30.666z M8.668,30.665h-2v-9.332H9.75c1.701,0,3.084,1.383,3.084,3.083c0,1.701-1.383,3.084-3.084,3.084H8.668V30.665z
	 M8.668,25.5H9.75c0.598,0,1.084-0.486,1.084-1.084c0-0.597-0.486-1.083-1.084-1.083H8.668V25.5z"/>
    </symbol>

    <symbol id="remove" viewBox="0 0 32 32">
        <path d="M29.98 6.819c-0.096-1.57-1.387-2.816-2.98-2.816h-3v-1.002c0-1.657-1.344-3-3-3h-10c-1.657 0-3 1.343-3 3v1.001h-3c-1.595 0-2.885 1.246-2.981 2.816h-0.019v2.183c0 1.104 0.896 2 2 2v0 17c0 2.209 1.791 4 4 4h16c2.209 0 4-1.791 4-4v-17c1.104 0 2-0.896 2-2v-2.182h-0.020zM10 3.002c0-0.553 0.447-1 1-1h10c0.553 0 1 0.447 1 1v1h-12v-1zM26 28.002c0 1.102-0.898 2-2 2h-16c-1.103 0-2-0.898-2-2v-17h20v17zM28 8.001v1h-24v-1.999c0-0.553 0.447-1 1-1h22c0.553 0 1 0.447 1 1v0.999zM9 28.006h2c0.553 0 1-0.447 1-1v-13c0-0.553-0.447-1-1-1h-2c-0.553 0-1 0.447-1 1v13c0 0.553 0.447 1 1 1zM9 14.005h2v13h-2v-13zM15 28.006h2c0.553 0 1-0.447 1-1v-13c0-0.553-0.447-1-1-1h-2c-0.553 0-1 0.447-1 1v13c0 0.553 0.447 1 1 1zM15 14.005h2v13h-2v-13zM21 28.006h2c0.553 0 1-0.447 1-1v-13c0-0.553-0.447-1-1-1h-2c-0.553 0-1 0.447-1 1v13c0 0.553 0.447 1 1 1zM21 14.005h2v13h-2v-13z"/>
    </symbol>

    <symbol id="arrow" viewBox="0 0 16 22">
        <path fill-rule="evenodd" clip-rule="evenodd" d="M5.735,10.97l9.189-7.804c0.092-0.078,0.15-0.19,0.16-0.312
        c0.009-0.12-0.029-0.241-0.109-0.333l-2.023-2.36c-0.08-0.093-0.192-0.149-0.313-0.159c-0.118-0.008-0.241,0.031-0.333,0.11
        L0.158,10.624C0.058,10.711,0,10.836,0,10.97s0.058,0.259,0.158,0.346l12.148,10.516c0.083,0.072,0.19,0.112,0.299,0.112
        c0.011,0,0.022,0,0.034-0.001c0.122-0.011,0.234-0.066,0.313-0.159l2.023-2.361c0.079-0.092,0.118-0.213,0.109-0.332
        c-0.01-0.122-0.067-0.234-0.16-0.313L5.735,10.97z"/>
    </symbol>

    <symbol id="player" viewBox="0 0 32 34">
        <path fill-rule="evenodd" clip-rule="evenodd" d="M20.958,13.461c0,0.39-0.317,0.709-0.708,0.709c-0.387,0-0.703-0.312-0.708-0.696
        c-0.133-0.017-1.282-0.017-1.417,0c-0.007,0.384-0.322,0.696-0.708,0.696c-0.391,0-0.708-0.319-0.708-0.709
        c0-1.248,0.919-1.431,2.125-1.419C20.036,12.036,20.958,12.204,20.958,13.461z M13.167,12.042c-1.206-0.012-2.125,0.171-2.125,1.419
        c0,0.39,0.317,0.709,0.708,0.709c0.387,0,0.701-0.312,0.708-0.696c0.134-0.017,1.283-0.017,1.417,0
        c0.006,0.384,0.322,0.696,0.708,0.696c0.391,0,0.708-0.319,0.708-0.709C15.292,12.204,14.37,12.036,13.167,12.042z M32,26.367V34H0
        v-7.64c0.729-1.154,1.81-2.082,3.137-2.579l7.575-2.272c-1.276-1.192-2.292-2.758-2.473-4.619c-0.972-0.332-1.624-1.376-1.624-2.723
        c0-0.451,0.079-0.864,0.212-1.232L6.09,7.893C5.943,1.21,12.294,0,16,0s10.061,1.18,9.914,7.862l-0.741,5.074
        c0.133,0.369,0.212,0.779,0.212,1.23c0,1.347-0.653,2.391-1.624,2.723c-0.18,1.852-1.186,3.408-2.452,4.599l7.51,2.277
        C30.173,24.272,31.266,25.207,32,26.367z M22.375,16.292c0-0.39,0.317-0.709,0.708-0.709c0.701,0,0.885-0.926,0.885-1.416
        s-0.184-1.417-0.885-1.417c-0.337,0-0.629-0.238-0.696-0.568l-0.595-2.98C18.068,9.101,16.764,8.04,16,6.934
        c-0.764,1.107-2.068,2.169-5.794,2.268l-0.595,2.98c-0.065,0.33-0.357,0.568-0.694,0.568c-0.701,0-0.885,0.927-0.885,1.417
        s0.184,1.416,0.885,1.416c0.391,0,0.708,0.319,0.708,0.709c0,3.683,4.474,6.375,6.375,6.375S22.375,19.975,22.375,16.292z"/>
    </symbol>
</svg>
